<svg xmlns="http://www.w3.org/2000/svg" viewBox="0 0 64 64" role="img" aria-label="OCR Annotation Icon">
  <defs>
    <linearGradient id="grad1" x1="0" y1="0" x2="1" y2="1">
      <stop offset="0%" stop-color="#667eea"/>
      <stop offset="100%" stop-color="#764ba2"/>
    </linearGradient>
  </defs>
  <rect width="64" height="64" rx="12" fill="url(#grad1)"/>
  <!-- Document -->
  <g transform="translate(10,8)">
    <rect x="4" y="4" width="36" height="40" rx="4" fill="#ffffff" stroke="#27324a" stroke-width="2"/>
    <path d="M40 12 L34 12 L40 18 Z" fill="#e9edf9"/>
    <rect x="10" y="14" width="20" height="3" rx="1.5" fill="#9aa6c1"/>
    <rect x="10" y="20" width="18" height="3" rx="1.5" fill="#c3cade"/>
    <rect x="10" y="26" width="14" height="3" rx="1.5" fill="#c3cade"/>
  </g>
  <!-- Magnifier with OCR text -->
  <g transform="translate(0,0)">
    <circle cx="32" cy="33" r="9" fill="#ffffff" stroke="#27324a" stroke-width="2"/>
    <path d="M38 39 L44 45" stroke="#27324a" stroke-width="3" stroke-linecap="round"/>
    <text x="32" y="36" text-anchor="middle" font-size="7" font-weight="700" font-family="Segoe UI, Arial, sans-serif" fill="#27324a">OCR</text>
  </g>
  <!-- Pen -->
  <g transform="translate(0,0) rotate(25 48 36)">
    <rect x="44" y="24" width="4" height="20" rx="2" fill="#27324a"/>
    <path d="M48 44 L50 49 L46 49 Z" fill="#27324a"/>
    <rect x="43.5" y="26" width="5" height="4" rx="2" fill="#9aa6c1"/>
  </g>
  <!-- Check mark -->
  <path d="M18 42 l3 3 l6 -7" fill="none" stroke="#2bb673" stroke-width="3" stroke-linecap="round" stroke-linejoin="round"/>
</svg>
